<svg width="73" height="72" viewBox="0 0 73 72" fill="none" xmlns="http://www.w3.org/2000/svg">
<rect x="0.5" width="72" height="72" rx="36" fill="#F3F3F3"/>
<path d="M46.818 31.446C45.0251 28.1964 41.4394 27.5241 38.3019 29.6531C38.1899 29.7652 37.9658 29.8772 37.7417 29.8772C37.7417 28.8687 38.0778 27.5241 39.1984 27.1879C39.7586 27.0759 40.2068 26.4036 39.9827 25.8433C39.8707 25.283 39.1984 24.8348 38.6381 25.0589C36.285 25.7313 35.5006 27.9723 35.3886 29.8772C35.2765 29.7652 35.1644 29.7652 35.0524 29.6531C31.9149 27.5241 28.3292 28.1964 26.5363 31.446C25.3038 33.687 25.1917 36.8245 26.0881 39.85C27.993 46.0129 32.9234 48.366 35.7247 47.2455C36.5091 47.0214 36.9573 47.1334 37.6296 47.2455C41.4394 48.254 45.5854 45.0044 47.2662 39.7379C48.1626 36.8245 47.9385 33.575 46.818 31.446ZM45.0251 39.1777C43.9046 42.8754 40.8792 45.9009 38.0778 45.1165C36.9573 44.7803 35.7247 44.8924 34.9403 45.1165C32.4752 45.7888 29.3377 43.0995 28.1051 39.1777C27.3207 36.7125 27.4328 34.2473 28.3292 32.5665C29.4497 30.5495 31.4667 30.1013 33.7078 31.558C35.5006 32.7906 37.7417 32.7906 39.4225 31.558C41.4394 30.2134 43.5684 30.4375 44.689 32.5665C45.6975 34.1353 45.8095 36.7125 45.0251 39.1777Z" fill="#6F6F6F"/>
<path d="M32.0266 33.1268C31.5784 32.7907 30.794 32.9027 30.4578 33.463C29.8976 34.2474 29.5614 36.2643 30.3458 38.5054C30.4578 38.9536 30.906 39.2898 31.4663 39.2898C32.2507 39.2898 32.8109 38.5054 32.5868 37.8331C31.9145 36.0402 32.2507 34.8076 32.3627 34.6956C32.6989 34.1353 32.5868 33.463 32.0266 33.1268Z" fill="#6F6F6F"/>
</svg>
