<svg width="15" height="16" viewBox="0 0 15 16" fill="none" xmlns="http://www.w3.org/2000/svg">
<rect y="0.399902" width="15" height="15" rx="7.5" fill="#F3F3F3"/>
<path d="M9.38724 7.04208V5.68367C9.38724 4.72831 8.5425 3.95386 7.49999 3.95386C6.45768 3.95386 5.61274 4.72907 5.61274 5.68367V7.04208H5.22988C4.87281 7.04208 4.58334 7.34988 4.58334 7.72781V11.1603C4.58334 11.539 4.87261 11.846 5.22988 11.846H9.77011C10.1272 11.846 10.4167 11.5382 10.4167 11.1603V7.72781C10.4167 7.34907 10.1274 7.04208 9.77011 7.04208H9.38724ZM9.58332 7.89991V11.0249H5.41666V7.89991H9.58332ZM6.45832 7.04208V5.68367C6.45832 5.12176 6.82434 4.77491 7.49999 4.77491C8.1761 4.77491 8.54166 5.12124 8.54166 5.68367V7.04208H6.45832ZM7.84313 9.02691C7.84313 8.83744 7.69084 8.68383 7.49999 8.68383C7.31049 8.68383 7.15685 8.8361 7.15685 9.02691V10.0565C7.15685 10.2459 7.30915 10.3995 7.49999 10.3995C7.68949 10.3995 7.84313 10.2473 7.84313 10.0565V9.02691Z" fill="#6F6F6F"/>
</svg>
