<svg width="15" height="16" viewBox="0 0 15 16" fill="none" xmlns="http://www.w3.org/2000/svg">
<rect y="0.399902" width="15" height="15" rx="7.5" fill="#F3F3F3"/>
<path d="M9.38757 7.04208V5.68367C9.38757 4.72831 8.54284 3.95386 7.50033 3.95386C6.45802 3.95386 5.61308 4.72907 5.61308 5.68367V7.04208H5.23022C4.87314 7.04208 4.58367 7.34988 4.58367 7.72781V11.1603C4.58367 11.539 4.87295 11.846 5.23022 11.846H9.77045C10.1275 11.846 10.417 11.5382 10.417 11.1603V7.72781C10.417 7.34907 10.1277 7.04208 9.77045 7.04208H9.38757ZM9.58366 7.89991V11.0249H5.41699V7.89991H9.58366ZM6.45866 7.04208V5.68367C6.45866 5.12176 6.82467 4.77491 7.50033 4.77491C8.17644 4.77491 8.54199 5.12124 8.54199 5.68367V7.04208H6.45866ZM7.84346 9.02691C7.84346 8.83744 7.69117 8.68383 7.50033 8.68383C7.31083 8.68383 7.15719 8.8361 7.15719 9.02691V10.0565C7.15719 10.2459 7.30948 10.3995 7.50033 10.3995C7.68983 10.3995 7.84346 10.2473 7.84346 10.0565V9.02691Z" fill="#FD4D00"/>
</svg>
