<svg width="72" height="72" viewBox="0 0 72 72" fill="none" xmlns="http://www.w3.org/2000/svg">
<rect width="72" height="72" rx="36" fill="#F3F3F3"/>
<path d="M28.7031 42.6069C29.3141 42.6062 29.9153 42.4529 30.4519 42.1609C30.9886 41.8688 31.4438 41.4473 31.7762 40.9346L37.5044 42.5262C37.5044 42.5519 37.5044 42.5776 37.5044 42.6069C37.5044 43.4773 37.7625 44.3281 38.246 45.0518C38.7296 45.7754 39.4169 46.3395 40.221 46.6726C41.0251 47.0056 41.9099 47.0928 42.7636 46.923C43.6172 46.7532 44.4013 46.3341 45.0168 45.7186C45.6322 45.1032 46.0513 44.3191 46.2211 43.4654C46.3909 42.6118 46.3038 41.727 45.9707 40.9228C45.6376 40.1187 45.0736 39.4314 44.3499 38.9479C43.6262 38.4643 42.7754 38.2063 41.905 38.2063C41.8023 38.2063 41.7033 38.2063 41.6043 38.2063L39.602 32.2251C40.2364 31.7345 40.7101 31.0661 40.9628 30.3051C41.2155 29.544 41.2356 28.725 41.0206 27.9524C40.8057 27.1799 40.3653 26.489 39.7558 25.9679C39.1464 25.4468 38.3954 25.1192 37.5989 25.0268C36.8023 24.9345 35.9963 25.0817 35.2838 25.4495C34.5713 25.8174 33.9846 26.3893 33.5986 27.0921C33.2126 27.795 33.0448 28.5969 33.1167 29.3956C33.1886 30.1942 33.4969 30.9533 34.0022 31.576L30.2653 35.6392C29.7678 35.3983 29.2223 35.273 28.6695 35.2727C28.1167 35.2723 27.571 35.3969 27.0732 35.6372C26.5754 35.8775 26.1383 36.2272 25.7947 36.6601C25.4511 37.0931 25.2098 37.5982 25.0888 38.1376C24.9679 38.6769 24.9705 39.2367 25.0963 39.7749C25.2222 40.3132 25.4681 40.816 25.8157 41.2458C26.1633 41.6756 26.6035 42.0213 27.1035 42.257C27.6035 42.4927 28.1504 42.6123 28.7031 42.6069ZM44.1053 42.6069C44.1053 43.0421 43.9763 43.4675 43.7345 43.8293C43.4928 44.1912 43.1491 44.4732 42.7471 44.6397C42.345 44.8063 41.9026 44.8498 41.4758 44.7649C41.0489 44.68 40.6569 44.4705 40.3492 44.1628C40.0414 43.855 39.8319 43.463 39.747 43.0362C39.6621 42.6093 39.7057 42.1669 39.8722 41.7649C40.0387 41.3628 40.3208 41.0192 40.6826 40.7774C41.0444 40.5356 41.4698 40.4066 41.905 40.4066C42.4886 40.4066 43.0482 40.6384 43.4609 41.051C43.8735 41.4637 44.1053 42.0233 44.1053 42.6069ZM39.514 38.9177C38.932 39.2962 38.4471 39.8062 38.0985 40.4066L32.3703 38.815C32.3515 38.2138 32.1839 37.6267 31.8826 37.1061L35.8248 32.8485C36.2469 32.9957 36.6906 33.0713 37.1377 33.0722C37.2785 33.0722 37.4193 33.0648 37.5594 33.0502L39.514 38.9177ZM37.1377 27.2047C37.5003 27.2047 37.8548 27.3122 38.1564 27.5137C38.4579 27.7152 38.6929 28.0015 38.8317 28.3366C38.9705 28.6716 39.0068 29.0403 38.936 29.396C38.8653 29.7517 38.6907 30.0784 38.4342 30.3348C38.1778 30.5912 37.8511 30.7659 37.4954 30.8366C37.1397 30.9074 36.771 30.8711 36.436 30.7323C36.1009 30.5935 35.8146 30.3585 35.6131 30.0569C35.4116 29.7554 35.3041 29.4009 35.3041 29.0383C35.3041 28.552 35.4972 28.0856 35.8411 27.7417C36.185 27.3978 36.6514 27.2047 37.1377 27.2047ZM28.7031 37.4728C28.9932 37.4728 29.2768 37.5588 29.5181 37.72C29.7593 37.8812 29.9473 38.1103 30.0583 38.3783C30.1694 38.6464 30.1984 38.9413 30.1418 39.2259C30.0852 39.5104 29.9455 39.7718 29.7403 39.9769C29.5352 40.1821 29.2738 40.3218 28.9893 40.3784C28.7047 40.435 28.4098 40.4059 28.1418 40.2949C27.8737 40.1839 27.6446 39.9959 27.4834 39.7546C27.3223 39.5134 27.2362 39.2298 27.2362 38.9397C27.2362 38.5507 27.3908 38.1775 27.6659 37.9025C27.941 37.6274 28.3141 37.4728 28.7031 37.4728Z" fill="#6F6F6F"/>
</svg>
