<svg width="72" height="72" viewBox="0 0 72 72" fill="none" xmlns="http://www.w3.org/2000/svg">
<rect width="72" height="72" rx="36" fill="#F3F3F3"/>
<path d="M42.9794 46C42.9794 46.8283 42.308 47.4998 41.4796 47.4998C40.6513 47.4998 39.9799 46.8283 39.9799 46C39.9799 45.1717 40.6513 44.5002 41.4796 44.5002C42.308 44.5002 42.9794 45.1717 42.9794 46Z" fill="#FD4D00"/>
<path d="M42.9798 28.5829C42.8737 27.1983 42.248 25.9052 41.228 24.963C40.208 24.0209 38.8693 23.4995 37.4807 23.5036C35.8834 23.4414 34.364 24.1945 33.4463 25.5033H32.4814C31.0359 25.5031 29.6484 26.0722 28.6192 27.0873C27.5901 28.1025 27.002 29.4819 26.9823 30.9274C25.5741 31.5484 24.5304 32.7832 24.1528 34.2752C23.7751 35.767 24.1058 37.3498 25.049 38.5658C25.9922 39.7818 27.443 40.4955 28.982 40.5009H32.1214C32.0337 40.8271 31.9867 41.1629 31.9815 41.5007C31.9815 42.9295 32.7438 44.2498 33.9812 44.9642C35.2186 45.6788 36.7431 45.6788 37.9806 44.9642C39.218 44.2498 39.9803 42.9295 39.9803 41.5007C39.9751 41.1629 39.928 40.8271 39.8403 40.5009H41.98C44.0096 40.5088 45.9058 39.4901 47.0192 37.7931C48.1328 36.0961 48.3126 33.9511 47.4974 32.0923C46.6822 30.2334 44.9822 28.913 42.9794 28.5828L42.9798 28.5829ZM35.9809 43.5006C35.4506 43.5006 34.942 43.2899 34.5669 42.9149C34.192 42.5398 33.9812 42.0312 33.9812 41.5009C33.9812 40.9706 34.1919 40.462 34.5669 40.0869C34.942 39.712 35.4506 39.5012 35.9809 39.5012C36.5112 39.5012 37.0198 39.712 37.3949 40.0869C37.7698 40.462 37.9806 40.9706 37.9806 41.5009C37.9806 42.0312 37.7699 42.5398 37.3949 42.9149C37.0198 43.2898 36.5112 43.5006 35.9809 43.5006ZM41.98 38.5014H38.6005C37.88 37.8569 36.9474 37.5007 35.9809 37.5007C35.0144 37.5007 34.0818 37.8569 33.3613 38.5014H28.982C28.005 38.4874 27.096 37.9985 26.5458 37.191C25.9958 36.3835 25.8734 35.3586 26.2179 34.4444C26.5626 33.53 27.3309 32.8408 28.277 32.5973C28.5242 32.521 28.7356 32.3582 28.8725 32.1387C29.0092 31.9193 29.0624 31.6578 29.022 31.4025C28.9983 31.2703 28.9849 31.1366 28.982 31.0025C28.982 30.0744 29.3508 29.1842 30.0069 28.5279C30.6632 27.8718 31.5534 27.503 32.4815 27.503H33.9812C34.3345 27.4991 34.6595 27.309 34.8361 27.0031C35.0866 26.5258 35.4691 26.1305 35.938 25.8646C36.407 25.5987 36.9425 25.4732 37.4807 25.5033C38.4088 25.5033 39.299 25.8721 39.9552 26.5283C40.6114 27.1846 40.9802 28.0747 40.9802 29.0028V29.5027C40.9802 29.7678 41.0855 30.0222 41.2731 30.2097C41.4606 30.3973 41.7149 30.5026 41.98 30.5026C43.4088 30.5026 44.7291 31.2648 45.4435 32.5023C46.1581 33.7397 46.1581 35.2642 45.4435 36.5017C44.7291 37.7391 43.4088 38.5014 41.98 38.5014L41.98 38.5014Z" fill="#FD4D00"/>
<path d="M39.9422 35.314H32.0813C31.6811 35.314 31.3562 34.992 31.3562 34.5953C31.3562 34.1987 31.6811 33.8767 32.0813 33.8767H39.9422C40.3424 33.8767 40.6673 34.1987 40.6673 34.5953C40.6673 34.992 40.3425 35.314 39.9422 35.314Z" fill="#FD4D00"/>
<path d="M38.506 32.6895H33.5489C33.1493 32.6895 32.8248 32.3675 32.8248 31.9708C32.8248 31.5742 33.1493 31.2522 33.5489 31.2522H38.506C38.9057 31.2522 39.2301 31.5742 39.2301 31.9708C39.2301 32.3675 38.9061 32.6895 38.506 32.6895Z" fill="#FD4D00"/>
</svg>
